<svg xmlns="http://www.w3.org/2000/svg" xmlns:xlink="http://www.w3.org/1999/xlink" viewBox="0 0 154.17 25.79"><defs><style>.cls-1{fill:none;}.cls-2{clip-path:url(#clip-path);}.cls-3{fill:#009fe3;}.cls-4{fill:#fff;}</style><clipPath id="clip-path"><rect class="cls-1" width="154.17" height="25.79"/></clipPath></defs><title>Element 1grimm</title><g id="Ebene_2" data-name="Ebene 2"><g id="Ebene_1-2" data-name="Ebene 1"><g class="cls-2"><path class="cls-3" d="M3.48,0h147.2a3.52,3.52,0,0,1,3.48,3.54V22.22a3.53,3.53,0,0,1-3.48,3.57H3.48A3.53,3.53,0,0,1,0,22.22V3.54A3.52,3.52,0,0,1,3.48,0"/><path class="cls-4" d="M51.43,5.61v2.5H45v4h6.43v3.73L49.52,14.6H45V20H40.33V5.61ZM32,16.64a3,3,0,0,1-1.07,2.69,8.1,8.1,0,0,1-4,.71H12.83a8.1,8.1,0,0,1-4-.71,3,3,0,0,1-1.1-2.69V9a3,3,0,0,1,1.1-2.69,8.1,8.1,0,0,1,4-.71H26.94c2,0,3.39.26,4,.75s1,1.46,1,2.85l-4.61.62V8.21H12.51v9.11H27.38V14.11H19.6V11.64H32ZM75.42,20H70.65V5.61h4.77Zm35.25,0h-4.39v-9a12.47,12.47,0,0,1,.16-1.46,13.58,13.58,0,0,1-1.19,1.49l-7.68,7.2h-.94l-7.68-7.23A6,6,0,0,1,87.71,9.6,14.24,14.24,0,0,1,87.84,11v9H84V5.61h3.86l9.63,8.72,9.41-8.72h3.79Zm35.56,0h-4.39v-9A12.53,12.53,0,0,1,142,9.6a13.62,13.62,0,0,1-1.19,1.49l-7.68,7.2h-.94l-7.68-7.23a6.05,6.05,0,0,1-1.22-1.46A14,14,0,0,1,123.4,11v9h-3.86V5.61h3.86l9.6,8.72,9.44-8.72h3.79Zm-94.8-4.18V12.13H55.7a4.09,4.09,0,0,0,1.54-.19.89.89,0,0,0,.6-.94V9.24a.89.89,0,0,0-.6-.94,4.1,4.1,0,0,0-1.54-.19H51.43V5.61h6.4q4.61,0,4.61,2.82v3.37c0,1.39-.78,2.24-2.38,2.59a34.18,34.18,0,0,1-4.92.2L64.57,20h-6.8Z"/></g></g></g></svg>