<svg xmlns="http://www.w3.org/2000/svg" viewBox="0 0 32.88 34.28"><defs><style>.cls-1{fill:#009fe3;}</style></defs><title>Element 2qr</title><g id="Ebene_2" data-name="Ebene 2"><g id="Ebene_1-2" data-name="Ebene 1"><rect class="cls-1" width="0.89" height="6.48"/><rect class="cls-1" y="7.41" width="0.89" height="1.85"/><rect class="cls-1" y="11.12" width="0.89" height="0.93"/><rect class="cls-1" y="14.82" width="0.89" height="0.93"/><rect class="cls-1" y="17.6" width="0.89" height="1.85"/><rect class="cls-1" y="21.31" width="0.89" height="3.71"/><rect class="cls-1" y="25.94" width="0.89" height="0.93"/><rect class="cls-1" y="27.79" width="0.89" height="6.49"/><rect class="cls-1" x="0.89" width="0.89" height="0.93"/><rect class="cls-1" x="0.89" y="5.56" width="0.89" height="0.93"/><rect class="cls-1" x="0.89" y="7.41" width="0.89" height="0.93"/><rect class="cls-1" x="0.89" y="9.26" width="0.89" height="3.71"/><rect class="cls-1" x="0.89" y="14.82" width="0.89" height="0.93"/><rect class="cls-1" x="0.89" y="16.68" width="0.89" height="0.93"/><rect class="cls-1" x="0.89" y="21.31" width="0.89" height="0.93"/><rect class="cls-1" x="0.89" y="23.16" width="0.89" height="0.93"/><rect class="cls-1" x="0.89" y="25.02" width="0.89" height="1.85"/><rect class="cls-1" x="0.89" y="27.79" width="0.89" height="0.93"/><rect class="cls-1" x="0.89" y="33.35" width="0.89" height="0.93"/><rect class="cls-1" x="1.78" width="0.89" height="0.93"/><rect class="cls-1" x="1.78" y="1.85" width="0.89" height="2.78"/><rect class="cls-1" x="1.78" y="5.56" width="0.89" height="0.93"/><rect class="cls-1" x="1.78" y="7.41" width="0.89" height="9.27"/><rect class="cls-1" x="1.78" y="18.53" width="0.89" height="1.85"/><rect class="cls-1" x="1.78" y="23.16" width="0.89" height="0.93"/><rect class="cls-1" x="1.78" y="27.79" width="0.89" height="0.93"/><rect class="cls-1" x="1.78" y="29.65" width="0.89" height="2.78"/><rect class="cls-1" x="1.78" y="33.35" width="0.89" height="0.93"/><rect class="cls-1" x="2.67" width="0.89" height="0.93"/><rect class="cls-1" x="2.67" y="1.85" width="0.89" height="2.78"/><rect class="cls-1" x="2.67" y="5.56" width="0.89" height="0.93"/><rect class="cls-1" x="2.67" y="7.41" width="0.89" height="2.78"/><rect class="cls-1" x="2.67" y="13.9" width="0.89" height="0.93"/><rect class="cls-1" x="2.67" y="15.75" width="0.89" height="0.93"/><rect class="cls-1" x="2.67" y="17.6" width="0.89" height="2.78"/><rect class="cls-1" x="2.67" y="21.31" width="0.89" height="1.85"/><rect class="cls-1" x="2.67" y="24.09" width="0.89" height="1.85"/><rect class="cls-1" x="2.67" y="27.79" width="0.89" height="0.93"/><rect class="cls-1" x="2.67" y="29.65" width="0.89" height="2.78"/><rect class="cls-1" x="2.67" y="33.35" width="0.89" height="0.93"/><rect class="cls-1" x="3.56" width="0.89" height="0.93"/><rect class="cls-1" x="3.56" y="1.85" width="0.89" height="2.78"/><rect class="cls-1" x="3.56" y="5.56" width="0.89" height="0.93"/><rect class="cls-1" x="3.56" y="10.19" width="0.89" height="3.7"/><rect class="cls-1" x="3.56" y="18.53" width="0.89" height="0.93"/><rect class="cls-1" x="3.56" y="20.38" width="0.89" height="1.85"/><rect class="cls-1" x="3.56" y="23.16" width="0.89" height="2.78"/><rect class="cls-1" x="3.56" y="27.79" width="0.89" height="0.93"/><rect class="cls-1" x="3.56" y="29.65" width="0.89" height="2.78"/><rect class="cls-1" x="3.56" y="33.35" width="0.89" height="0.93"/><rect class="cls-1" x="4.44" width="0.89" height="0.93"/><rect class="cls-1" x="4.44" y="5.56" width="0.89" height="0.93"/><rect class="cls-1" x="4.44" y="9.26" width="0.89" height="0.93"/><rect class="cls-1" x="4.44" y="11.12" width="0.89" height="0.93"/><rect class="cls-1" x="4.44" y="14.82" width="0.89" height="1.85"/><rect class="cls-1" x="4.44" y="19.46" width="0.89" height="1.85"/><rect class="cls-1" x="4.44" y="23.16" width="0.89" height="1.85"/><rect class="cls-1" x="4.44" y="25.94" width="0.89" height="0.93"/><rect class="cls-1" x="4.44" y="27.79" width="0.89" height="0.93"/><rect class="cls-1" x="4.44" y="33.35" width="0.89" height="0.93"/><rect class="cls-1" x="5.33" width="0.89" height="6.48"/><rect class="cls-1" x="5.33" y="7.41" width="0.89" height="0.93"/><rect class="cls-1" x="5.33" y="9.26" width="0.89" height="0.93"/><rect class="cls-1" x="5.33" y="11.12" width="0.89" height="0.93"/><rect class="cls-1" x="5.33" y="12.97" width="0.89" height="0.93"/><rect class="cls-1" x="5.33" y="14.82" width="0.89" height="0.93"/><rect class="cls-1" x="5.33" y="16.68" width="0.89" height="0.93"/><rect class="cls-1" x="5.33" y="18.53" width="0.89" height="0.93"/><rect class="cls-1" x="5.33" y="20.38" width="0.89" height="0.93"/><rect class="cls-1" x="5.33" y="22.23" width="0.89" height="0.93"/><rect class="cls-1" x="5.33" y="24.09" width="0.89" height="0.93"/><rect class="cls-1" x="5.33" y="25.94" width="0.89" height="0.93"/><rect class="cls-1" x="5.33" y="27.79" width="0.89" height="6.49"/><rect class="cls-1" x="6.22" y="9.26" width="0.89" height="1.85"/><rect class="cls-1" x="6.22" y="12.05" width="0.89" height="1.85"/><rect class="cls-1" x="6.22" y="14.82" width="0.89" height="0.93"/><rect class="cls-1" x="6.22" y="17.6" width="0.89" height="2.78"/><rect class="cls-1" x="6.22" y="21.31" width="0.89" height="1.85"/><rect class="cls-1" x="7.11" width="0.89" height="0.93"/><rect class="cls-1" x="7.11" y="1.85" width="0.89" height="2.78"/><rect class="cls-1" x="7.11" y="5.56" width="0.89" height="0.93"/><rect class="cls-1" x="7.11" y="7.41" width="0.89" height="0.93"/><rect class="cls-1" x="7.11" y="9.26" width="0.89" height="0.93"/><rect class="cls-1" x="7.11" y="12.05" width="0.89" height="1.85"/><rect class="cls-1" x="7.11" y="14.82" width="0.89" height="1.85"/><rect class="cls-1" x="7.11" y="17.6" width="0.89" height="0.93"/><rect class="cls-1" x="7.11" y="19.46" width="0.89" height="3.71"/><rect class="cls-1" x="7.11" y="25.94" width="0.89" height="1.85"/><rect class="cls-1" x="7.11" y="30.57" width="0.89" height="3.71"/><rect class="cls-1" x="8" y="0.93" width="0.89" height="2.78"/><rect class="cls-1" x="8" y="8.34" width="0.89" height="1.85"/><rect class="cls-1" x="8" y="14.82" width="0.89" height="0.93"/><rect class="cls-1" x="8" y="17.6" width="0.89" height="0.93"/><rect class="cls-1" x="8" y="19.46" width="0.89" height="0.93"/><rect class="cls-1" x="8" y="21.31" width="0.89" height="2.78"/><rect class="cls-1" x="8" y="25.94" width="0.89" height="3.71"/><rect class="cls-1" x="8" y="30.57" width="0.89" height="1.85"/><rect class="cls-1" x="8" y="33.35" width="0.89" height="0.93"/><rect class="cls-1" x="8.89" width="0.89" height="3.71"/><rect class="cls-1" x="8.89" y="4.63" width="0.89" height="4.63"/><rect class="cls-1" x="8.89" y="12.97" width="0.89" height="1.85"/><rect class="cls-1" x="8.89" y="15.75" width="0.89" height="0.93"/><rect class="cls-1" x="8.89" y="17.6" width="0.89" height="0.93"/><rect class="cls-1" x="8.89" y="20.38" width="0.89" height="1.85"/><rect class="cls-1" x="8.89" y="23.16" width="0.89" height="0.93"/><rect class="cls-1" x="8.89" y="25.94" width="0.89" height="1.85"/><rect class="cls-1" x="8.89" y="28.72" width="0.89" height="0.93"/><rect class="cls-1" x="8.89" y="30.57" width="0.89" height="1.85"/><rect class="cls-1" x="9.78" y="0.93" width="0.89" height="0.93"/><rect class="cls-1" x="9.78" y="3.71" width="0.89" height="1.85"/><rect class="cls-1" x="9.78" y="7.41" width="0.89" height="0.93"/><rect class="cls-1" x="9.78" y="9.26" width="0.89" height="0.93"/><rect class="cls-1" x="9.78" y="12.05" width="0.89" height="2.78"/><rect class="cls-1" x="9.78" y="17.6" width="0.89" height="0.93"/><rect class="cls-1" x="9.78" y="21.31" width="0.89" height="2.78"/><rect class="cls-1" x="9.78" y="25.94" width="0.89" height="0.93"/><rect class="cls-1" x="9.78" y="27.79" width="0.89" height="0.93"/><rect class="cls-1" x="9.78" y="29.65" width="0.89" height="0.93"/><rect class="cls-1" x="9.78" y="31.5" width="0.89" height="0.93"/><rect class="cls-1" x="10.66" width="0.89" height="1.85"/><rect class="cls-1" x="10.66" y="2.78" width="0.89" height="1.85"/><rect class="cls-1" x="10.66" y="5.56" width="0.89" height="4.63"/><rect class="cls-1" x="10.66" y="11.12" width="0.89" height="1.85"/><rect class="cls-1" x="10.66" y="14.82" width="0.89" height="0.93"/><rect class="cls-1" x="10.66" y="21.31" width="0.89" height="0.93"/><rect class="cls-1" x="10.66" y="24.09" width="0.89" height="1.85"/><rect class="cls-1" x="10.66" y="26.87" width="0.89" height="5.56"/><rect class="cls-1" x="10.66" y="33.35" width="0.89" height="0.93"/><rect class="cls-1" x="11.55" y="0.93" width="0.89" height="3.7"/><rect class="cls-1" x="11.55" y="8.34" width="0.89" height="0.93"/><rect class="cls-1" x="11.55" y="10.19" width="0.89" height="1.85"/><rect class="cls-1" x="11.55" y="12.97" width="0.89" height="0.93"/><rect class="cls-1" x="11.55" y="14.82" width="0.89" height="0.93"/><rect class="cls-1" x="11.55" y="19.46" width="0.89" height="0.93"/><rect class="cls-1" x="11.55" y="21.31" width="0.89" height="0.93"/><rect class="cls-1" x="11.55" y="23.16" width="0.89" height="0.93"/><rect class="cls-1" x="11.55" y="25.01" width="0.89" height="0.93"/><rect class="cls-1" x="11.55" y="26.87" width="0.89" height="0.93"/><rect class="cls-1" x="11.55" y="29.65" width="0.89" height="2.78"/><rect class="cls-1" x="12.44" y="1.85" width="0.89" height="0.93"/><rect class="cls-1" x="12.44" y="3.71" width="0.89" height="4.63"/><rect class="cls-1" x="12.44" y="9.26" width="0.89" height="0.93"/><rect class="cls-1" x="12.44" y="11.12" width="0.89" height="0.93"/><rect class="cls-1" x="12.44" y="12.97" width="0.89" height="0.93"/><rect class="cls-1" x="12.44" y="16.68" width="0.89" height="0.93"/><rect class="cls-1" x="12.44" y="18.53" width="0.89" height="0.93"/><rect class="cls-1" x="12.44" y="23.16" width="0.89" height="1.85"/><rect class="cls-1" x="12.44" y="30.57" width="0.89" height="0.93"/><rect class="cls-1" x="12.44" y="33.35" width="0.89" height="0.93"/><rect class="cls-1" x="13.33" y="3.71" width="0.89" height="0.93"/><rect class="cls-1" x="13.33" y="6.48" width="0.89" height="0.93"/><rect class="cls-1" x="13.33" y="10.19" width="0.89" height="2.78"/><rect class="cls-1" x="13.33" y="13.9" width="0.89" height="0.93"/><rect class="cls-1" x="13.33" y="15.75" width="0.89" height="1.85"/><rect class="cls-1" x="13.33" y="18.53" width="0.89" height="0.93"/><rect class="cls-1" x="13.33" y="21.31" width="0.89" height="2.78"/><rect class="cls-1" x="13.33" y="25.02" width="0.89" height="4.63"/><rect class="cls-1" x="13.33" y="33.35" width="0.89" height="0.93"/><rect class="cls-1" x="14.22" width="0.89" height="2.78"/><rect class="cls-1" x="14.22" y="3.71" width="0.89" height="0.93"/><rect class="cls-1" x="14.22" y="5.56" width="0.89" height="0.93"/><rect class="cls-1" x="14.22" y="8.34" width="0.89" height="4.63"/><rect class="cls-1" x="14.22" y="13.9" width="0.89" height="1.85"/><rect class="cls-1" x="14.22" y="17.6" width="0.89" height="2.78"/><rect class="cls-1" x="14.22" y="23.16" width="0.89" height="0.93"/><rect class="cls-1" x="14.22" y="25.01" width="0.89" height="0.93"/><rect class="cls-1" x="14.22" y="26.87" width="0.89" height="0.93"/><rect class="cls-1" x="14.22" y="30.57" width="0.89" height="1.85"/><rect class="cls-1" x="15.11" width="0.89" height="1.85"/><rect class="cls-1" x="15.11" y="2.78" width="0.89" height="2.78"/><rect class="cls-1" x="15.11" y="6.48" width="0.89" height="1.85"/><rect class="cls-1" x="15.11" y="11.12" width="0.89" height="2.78"/><rect class="cls-1" x="15.11" y="17.6" width="0.89" height="3.71"/><rect class="cls-1" x="15.11" y="22.23" width="0.89" height="0.93"/><rect class="cls-1" x="15.11" y="24.09" width="0.89" height="0.93"/><rect class="cls-1" x="15.11" y="26.87" width="0.89" height="0.93"/><rect class="cls-1" x="15.11" y="28.72" width="0.89" height="1.85"/><rect class="cls-1" x="15.11" y="33.35" width="0.89" height="0.93"/><rect class="cls-1" x="16" width="0.89" height="0.93"/><rect class="cls-1" x="16" y="1.85" width="0.89" height="0.93"/><rect class="cls-1" x="16" y="3.71" width="0.89" height="0.93"/><rect class="cls-1" x="16" y="5.56" width="0.89" height="0.93"/><rect class="cls-1" x="16" y="7.41" width="0.89" height="0.93"/><rect class="cls-1" x="16" y="12.04" width="0.89" height="0.93"/><rect class="cls-1" x="16" y="13.9" width="0.89" height="1.85"/><rect class="cls-1" x="16" y="17.6" width="0.89" height="2.78"/><rect class="cls-1" x="16" y="21.31" width="0.89" height="0.93"/><rect class="cls-1" x="16" y="24.09" width="0.89" height="2.78"/><rect class="cls-1" x="16" y="27.79" width="0.89" height="5.56"/><rect class="cls-1" x="16.89" width="0.89" height="0.93"/><rect class="cls-1" x="16.89" y="1.85" width="0.89" height="3.71"/><rect class="cls-1" x="16.89" y="6.48" width="0.89" height="2.78"/><rect class="cls-1" x="16.89" y="12.05" width="0.89" height="1.85"/><rect class="cls-1" x="16.89" y="17.6" width="0.89" height="2.78"/><rect class="cls-1" x="16.89" y="22.24" width="0.89" height="4.63"/><rect class="cls-1" x="16.89" y="29.65" width="0.89" height="1.85"/><rect class="cls-1" x="16.89" y="32.43" width="0.89" height="1.85"/><rect class="cls-1" x="17.77" width="0.89" height="1.85"/><rect class="cls-1" x="17.77" y="4.63" width="0.89" height="2.78"/><rect class="cls-1" x="17.77" y="8.34" width="0.89" height="0.93"/><rect class="cls-1" x="17.77" y="11.12" width="0.89" height="0.93"/><rect class="cls-1" x="17.77" y="12.97" width="0.89" height="4.63"/><rect class="cls-1" x="17.77" y="19.46" width="0.89" height="0.93"/><rect class="cls-1" x="17.77" y="21.31" width="0.89" height="0.93"/><rect class="cls-1" x="17.77" y="23.16" width="0.89" height="0.93"/><rect class="cls-1" x="17.77" y="25.02" width="0.89" height="3.7"/><rect class="cls-1" x="17.77" y="30.57" width="0.89" height="0.93"/><rect class="cls-1" x="18.66" width="0.89" height="1.85"/><rect class="cls-1" x="18.66" y="4.63" width="0.89" height="0.93"/><rect class="cls-1" x="18.66" y="7.41" width="0.89" height="1.85"/><rect class="cls-1" x="18.66" y="13.9" width="0.89" height="1.85"/><rect class="cls-1" x="18.66" y="16.68" width="0.89" height="0.93"/><rect class="cls-1" x="18.66" y="18.53" width="0.89" height="0.93"/><rect class="cls-1" x="18.66" y="20.38" width="0.89" height="0.93"/><rect class="cls-1" x="18.66" y="24.09" width="0.89" height="4.63"/><rect class="cls-1" x="18.66" y="29.65" width="0.89" height="0.93"/><rect class="cls-1" x="19.55" y="0.93" width="0.89" height="0.93"/><rect class="cls-1" x="19.55" y="2.78" width="0.89" height="4.63"/><rect class="cls-1" x="19.55" y="8.34" width="0.89" height="1.85"/><rect class="cls-1" x="19.55" y="11.12" width="0.89" height="1.85"/><rect class="cls-1" x="19.55" y="14.82" width="0.89" height="3.71"/><rect class="cls-1" x="19.55" y="20.38" width="0.89" height="7.41"/><rect class="cls-1" x="19.55" y="28.72" width="0.89" height="0.93"/><rect class="cls-1" x="19.55" y="31.5" width="0.89" height="2.78"/><rect class="cls-1" x="20.44" width="0.89" height="3.71"/><rect class="cls-1" x="20.44" y="6.48" width="0.89" height="0.93"/><rect class="cls-1" x="20.44" y="8.34" width="0.89" height="2.78"/><rect class="cls-1" x="20.44" y="15.75" width="0.89" height="0.93"/><rect class="cls-1" x="20.44" y="18.53" width="0.89" height="2.78"/><rect class="cls-1" x="20.44" y="22.23" width="0.89" height="0.93"/><rect class="cls-1" x="20.44" y="25.94" width="0.89" height="1.85"/><rect class="cls-1" x="20.44" y="30.57" width="0.89" height="3.71"/><rect class="cls-1" x="21.33" y="1.85" width="0.89" height="6.48"/><rect class="cls-1" x="21.33" y="9.26" width="0.89" height="5.56"/><rect class="cls-1" x="21.33" y="15.75" width="0.89" height="2.78"/><rect class="cls-1" x="21.33" y="20.38" width="0.89" height="0.93"/><rect class="cls-1" x="21.33" y="22.23" width="0.89" height="2.78"/><rect class="cls-1" x="21.33" y="26.87" width="0.89" height="1.85"/><rect class="cls-1" x="21.33" y="29.65" width="0.89" height="0.93"/><rect class="cls-1" x="21.33" y="31.5" width="0.89" height="2.78"/><rect class="cls-1" x="22.22" y="1.85" width="0.89" height="2.78"/><rect class="cls-1" x="22.22" y="9.26" width="0.89" height="2.78"/><rect class="cls-1" x="22.22" y="12.97" width="0.89" height="0.93"/><rect class="cls-1" x="22.22" y="14.82" width="0.89" height="1.85"/><rect class="cls-1" x="22.22" y="21.31" width="0.89" height="3.71"/><rect class="cls-1" x="22.22" y="25.94" width="0.89" height="1.85"/><rect class="cls-1" x="22.22" y="30.57" width="0.89" height="3.71"/><rect class="cls-1" x="23.11" y="1.85" width="0.89" height="0.93"/><rect class="cls-1" x="23.11" y="3.71" width="0.89" height="2.78"/><rect class="cls-1" x="23.11" y="7.41" width="0.89" height="4.63"/><rect class="cls-1" x="23.11" y="15.75" width="0.89" height="1.85"/><rect class="cls-1" x="23.11" y="18.53" width="0.89" height="0.93"/><rect class="cls-1" x="23.11" y="21.31" width="0.89" height="3.71"/><rect class="cls-1" x="23.11" y="27.79" width="0.89" height="0.93"/><rect class="cls-1" x="23.11" y="29.65" width="0.89" height="0.93"/><rect class="cls-1" x="24" y="2.78" width="0.89" height="1.85"/><rect class="cls-1" x="24" y="6.48" width="0.89" height="1.85"/><rect class="cls-1" x="24" y="10.19" width="0.89" height="2.78"/><rect class="cls-1" x="24" y="15.75" width="0.89" height="1.85"/><rect class="cls-1" x="24" y="22.23" width="0.89" height="1.85"/><rect class="cls-1" x="24" y="25.01" width="0.89" height="0.93"/><rect class="cls-1" x="24" y="28.72" width="0.89" height="0.93"/><rect class="cls-1" x="24" y="30.57" width="0.89" height="0.93"/><rect class="cls-1" x="24.88" width="0.89" height="0.93"/><rect class="cls-1" x="24.88" y="3.71" width="0.89" height="4.63"/><rect class="cls-1" x="24.88" y="12.05" width="0.89" height="1.85"/><rect class="cls-1" x="24.88" y="14.82" width="0.89" height="0.93"/><rect class="cls-1" x="24.88" y="16.68" width="0.89" height="0.93"/><rect class="cls-1" x="24.88" y="18.53" width="0.89" height="1.85"/><rect class="cls-1" x="24.88" y="23.16" width="0.89" height="0.93"/><rect class="cls-1" x="24.88" y="25.02" width="0.89" height="6.48"/><rect class="cls-1" x="25.77" y="7.41" width="0.89" height="0.93"/><rect class="cls-1" x="25.77" y="10.19" width="0.89" height="2.78"/><rect class="cls-1" x="25.77" y="13.9" width="0.89" height="0.93"/><rect class="cls-1" x="25.77" y="15.75" width="0.89" height="0.93"/><rect class="cls-1" x="25.77" y="18.53" width="0.89" height="1.85"/><rect class="cls-1" x="25.77" y="22.23" width="0.89" height="0.93"/><rect class="cls-1" x="25.77" y="25.94" width="0.89" height="0.93"/><rect class="cls-1" x="25.77" y="29.65" width="0.89" height="4.63"/><rect class="cls-1" x="26.66" width="0.89" height="6.48"/><rect class="cls-1" x="26.66" y="10.19" width="0.89" height="2.78"/><rect class="cls-1" x="26.66" y="13.9" width="0.89" height="0.93"/><rect class="cls-1" x="26.66" y="15.75" width="0.89" height="2.78"/><rect class="cls-1" x="26.66" y="22.23" width="0.89" height="1.85"/><rect class="cls-1" x="26.66" y="25.94" width="0.89" height="0.93"/><rect class="cls-1" x="26.66" y="27.79" width="0.89" height="0.93"/><rect class="cls-1" x="26.66" y="29.65" width="0.89" height="3.71"/><rect class="cls-1" x="27.55" width="0.89" height="0.93"/><rect class="cls-1" x="27.55" y="5.56" width="0.89" height="0.93"/><rect class="cls-1" x="27.55" y="8.34" width="0.89" height="1.85"/><rect class="cls-1" x="27.55" y="13.9" width="0.89" height="0.93"/><rect class="cls-1" x="27.55" y="16.68" width="0.89" height="5.56"/><rect class="cls-1" x="27.55" y="23.16" width="0.89" height="1.85"/><rect class="cls-1" x="27.55" y="25.94" width="0.89" height="0.93"/><rect class="cls-1" x="27.55" y="29.65" width="0.89" height="2.78"/><rect class="cls-1" x="27.55" y="33.35" width="0.89" height="0.93"/><rect class="cls-1" x="28.44" width="0.89" height="0.93"/><rect class="cls-1" x="28.44" y="1.85" width="0.89" height="2.78"/><rect class="cls-1" x="28.44" y="5.56" width="0.89" height="0.93"/><rect class="cls-1" x="28.44" y="7.41" width="0.89" height="0.93"/><rect class="cls-1" x="28.44" y="9.26" width="0.89" height="3.71"/><rect class="cls-1" x="28.44" y="13.9" width="0.89" height="0.93"/><rect class="cls-1" x="28.44" y="18.53" width="0.89" height="0.93"/><rect class="cls-1" x="28.44" y="20.38" width="0.89" height="4.63"/><rect class="cls-1" x="28.44" y="25.94" width="0.89" height="7.41"/><rect class="cls-1" x="29.33" width="0.89" height="0.93"/><rect class="cls-1" x="29.33" y="1.85" width="0.89" height="2.78"/><rect class="cls-1" x="29.33" y="5.56" width="0.89" height="0.93"/><rect class="cls-1" x="29.33" y="7.41" width="0.89" height="1.85"/><rect class="cls-1" x="29.33" y="11.12" width="0.89" height="3.71"/><rect class="cls-1" x="29.33" y="15.75" width="0.89" height="0.93"/><rect class="cls-1" x="29.33" y="17.6" width="0.89" height="1.85"/><rect class="cls-1" x="29.33" y="20.38" width="0.89" height="1.85"/><rect class="cls-1" x="29.33" y="23.16" width="0.89" height="1.85"/><rect class="cls-1" x="29.33" y="25.94" width="0.89" height="1.85"/><rect class="cls-1" x="29.33" y="32.43" width="0.89" height="1.85"/><rect class="cls-1" x="30.22" width="0.89" height="0.93"/><rect class="cls-1" x="30.22" y="1.85" width="0.89" height="2.78"/><rect class="cls-1" x="30.22" y="5.56" width="0.89" height="0.93"/><rect class="cls-1" x="30.22" y="7.41" width="0.89" height="5.56"/><rect class="cls-1" x="30.22" y="14.82" width="0.89" height="0.93"/><rect class="cls-1" x="30.22" y="16.68" width="0.89" height="0.93"/><rect class="cls-1" x="30.22" y="20.38" width="0.89" height="2.78"/><rect class="cls-1" x="30.22" y="25.94" width="0.89" height="2.78"/><rect class="cls-1" x="30.22" y="30.57" width="0.89" height="3.71"/><rect class="cls-1" x="31.1" width="0.89" height="0.93"/><rect class="cls-1" x="31.1" y="5.56" width="0.89" height="0.93"/><rect class="cls-1" x="31.1" y="8.34" width="0.89" height="2.78"/><rect class="cls-1" x="31.1" y="12.97" width="0.89" height="0.93"/><rect class="cls-1" x="31.1" y="14.82" width="0.89" height="5.56"/><rect class="cls-1" x="31.1" y="22.23" width="0.89" height="0.93"/><rect class="cls-1" x="31.1" y="24.09" width="0.89" height="0.93"/><rect class="cls-1" x="31.1" y="25.94" width="0.89" height="0.93"/><rect class="cls-1" x="31.1" y="27.79" width="0.89" height="3.71"/><rect class="cls-1" x="31.1" y="33.35" width="0.89" height="0.93"/><rect class="cls-1" x="31.99" width="0.89" height="6.48"/><rect class="cls-1" x="31.99" y="7.41" width="0.89" height="0.93"/><rect class="cls-1" x="31.99" y="10.19" width="0.89" height="2.78"/><rect class="cls-1" x="31.99" y="13.9" width="0.89" height="0.93"/><rect class="cls-1" x="31.99" y="15.75" width="0.89" height="1.85"/><rect class="cls-1" x="31.99" y="22.23" width="0.89" height="1.85"/><rect class="cls-1" x="31.99" y="25.02" width="0.89" height="3.7"/><rect class="cls-1" x="31.99" y="29.65" width="0.89" height="1.85"/><rect class="cls-1" x="31.99" y="33.35" width="0.89" height="0.93"/></g></g></svg>