<?xml version="1.0" standalone="no"?>
<!DOCTYPE svg PUBLIC "-//W3C//DTD SVG 20010904//EN"
 "http://www.w3.org/TR/2001/REC-SVG-20010904/DTD/svg10.dtd">
<svg version="1.0" xmlns="http://www.w3.org/2000/svg"
 width="2379.000000pt" height="684.000000pt" viewBox="0 0 2379.000000 684.000000"
 preserveAspectRatio="xMidYMid meet">
<metadata>
Created by potrace 1.16, written by Peter Selinger 2001-2019
</metadata>
<g transform="translate(0.000000,684.000000) scale(0.100000,-0.100000)"
fill="#000000" stroke="none">
<path d="M4900 6817 c-166 -59 -302 -150 -456 -302 -134 -133 -254 -293 -329
-437 -31 -60 -53 -108 -49 -108 4 0 59 9 123 20 64 11 131 21 149 22 28 2 32
6 32 30 0 118 141 196 245 136 23 -14 50 -41 62 -64 l23 -41 142 23 c78 13
145 21 148 19 11 -7 69 190 86 289 19 106 14 313 -8 386 -13 44 -15 45 -58 48
-28 1 -71 -7 -110 -21z"/>
<path d="M3848 5010 l-84 -131 18 -72 c10 -39 16 -79 13 -87 -12 -30 13 6 124
179 61 96 111 180 111 187 0 14 -60 54 -83 54 -8 0 -52 -58 -99 -130z"/>
<path d="M3696 4919 c-54 -84 -91 -147 -82 -140 13 11 16 7 22 -25 6 -35 8
-36 21 -18 8 10 19 18 24 16 6 -1 8 2 4 8 -4 6 30 67 75 136 83 129 95 166 54
172 -16 2 -38 -25 -118 -149z"/>
<path d="M1483 4969 c-769 -74 -1350 -709 -1468 -1603 -17 -135 -20 -446 -5
-563 60 -447 218 -792 490 -1064 269 -269 579 -405 1000 -439 74 -6 135 -12
137 -14 2 -2 -550 -963 -711 -1238 l-28 -48 594 0 593 0 26 43 c14 23 340 532
724 1132 383 600 700 1096 702 1103 4 9 -192 12 -959 12 -606 0 -994 4 -1046
10 -46 6 -113 22 -150 36 -52 20 -84 26 -142 25 -119 -2 -1021 37 -1029 44 -3
4 -6 91 -6 193 0 200 11 278 62 432 150 449 524 779 993 874 155 31 286 36
985 36 l703 0 325 508 c178 279 327 513 331 520 6 9 -200 12 -1016 11 -563 -1
-1060 -5 -1105 -10z"/>
<path d="M3475 3838 c-401 -628 -731 -1145 -733 -1150 -2 -4 459 -9 1025 -11
1102 -3 1052 -1 1168 -52 27 -12 62 -17 110 -16 96 2 1016 -36 1022 -43 12
-12 23 -178 17 -266 -22 -345 -152 -639 -383 -870 -208 -207 -440 -322 -761
-377 -67 -11 -246 -15 -845 -20 l-760 -5 -328 -511 -328 -512 1053 -3 c930 -2
1065 -1 1158 14 342 53 625 203 874 465 428 450 618 1187 481 1865 -94 466
-337 846 -690 1079 -222 146 -457 222 -771 248 l-141 12 368 638 c203 351 369
643 369 648 0 5 -238 9 -587 9 l-588 0 -730 -1142z"/>
<path d="M3889 4820 c-84 -132 -90 -149 -70 -202 6 -15 27 12 104 133 100 155
113 191 71 197 -17 2 -36 -21 -105 -128z"/>
<path d="M8194 3866 c-40 -8 -89 -19 -110 -26 -122 -39 -233 -132 -282 -237
-24 -52 -27 -69 -27 -168 0 -100 2 -115 28 -167 16 -32 48 -75 75 -99 81 -72
131 -90 510 -190 136 -35 195 -93 171 -166 -46 -139 -403 -133 -643 12 -32 19
-59 35 -61 35 -1 0 -28 -59 -60 -131 l-59 -132 25 -20 c40 -34 166 -87 268
-115 85 -22 116 -25 271 -26 195 -1 242 7 357 60 95 43 173 117 216 203 30 61
32 72 32 171 0 128 -22 185 -95 254 -79 74 -170 111 -434 176 -171 42 -231 69
-252 113 -21 45 -13 80 30 123 41 41 98 56 206 56 107 0 200 -22 306 -71 l82
-39 51 124 c28 68 51 129 51 137 0 21 -122 76 -230 104 -120 30 -320 39 -426
19z"/>
<path d="M14275 3870 c-149 -23 -273 -85 -352 -174 -109 -123 -123 -340 -32
-473 36 -52 123 -116 197 -143 31 -12 141 -43 244 -70 103 -27 200 -56 216
-64 39 -20 82 -72 82 -99 0 -33 -35 -84 -69 -101 -128 -67 -400 -31 -576 75
-37 23 -68 39 -70 37 -5 -6 -115 -255 -115 -260 0 -11 96 -67 158 -92 140 -56
223 -70 412 -71 199 0 257 12 374 73 86 45 152 110 190 188 39 78 48 212 20
299 -40 128 -153 206 -389 270 -71 20 -164 45 -205 56 -113 31 -160 56 -177
96 -11 27 -12 42 -3 67 24 73 98 107 235 108 112 0 203 -21 312 -72 74 -35 85
-37 90 -22 4 9 28 69 54 132 54 131 56 123 -41 167 -141 64 -395 97 -555 73z"/>
<path d="M16418 3870 c-275 -44 -495 -221 -581 -469 -26 -73 -31 -104 -35
-213 -8 -246 58 -415 225 -567 75 -69 206 -140 313 -168 92 -25 339 -25 430 0
134 36 291 130 349 207 l22 31 -73 68 c-148 138 -160 146 -172 116 -11 -30
-129 -105 -198 -126 -143 -44 -311 -9 -416 85 -96 87 -136 194 -130 345 3 82
8 106 35 163 120 255 464 317 673 122 26 -24 51 -44 56 -44 10 0 217 185 222
199 1 4 -29 38 -67 74 -78 74 -190 134 -301 161 -78 20 -273 28 -352 16z"/>
<path d="M9820 3155 l0 -705 170 0 170 0 0 178 0 177 88 88 88 88 214 -265
215 -265 203 0 c111 -1 202 2 202 5 0 3 -135 176 -301 385 -165 209 -299 384
-297 389 2 5 129 144 283 310 154 166 282 306 283 311 2 5 -76 9 -190 9 l-193
0 -295 -312 -295 -312 -3 312 -2 312 -170 0 -170 0 0 -705z"/>
<path d="M11702 3843 c3 -10 123 -213 266 -451 l262 -434 0 -254 0 -254 175 0
175 0 0 248 0 248 270 448 c149 247 270 452 270 457 0 5 -76 9 -170 9 l-169 0
-177 -295 c-97 -162 -180 -295 -183 -295 -3 0 -85 132 -182 293 l-175 292
-183 3 c-171 2 -183 1 -179 -15z"/>
<path d="M18040 3155 l0 -705 545 0 545 0 0 145 0 145 -375 0 -375 0 0 145 0
145 320 0 320 0 0 135 0 135 -320 0 -320 0 0 135 0 135 365 0 365 0 0 145 0
145 -535 0 -535 0 0 -705z"/>
<path d="M20080 3155 l0 -705 170 0 170 0 2 402 3 401 330 -401 329 -402 143
0 143 0 0 705 0 705 -172 -2 -173 -3 -5 -398 -5 -398 -328 401 -328 400 -139
0 -140 0 0 -705z"/>
<path d="M22380 3155 l0 -705 353 0 c395 0 495 10 624 60 102 39 170 83 246
158 73 71 118 143 155 244 25 68 27 84 27 238 0 154 -2 170 -28 243 -56 160
-167 288 -315 366 -163 84 -287 101 -754 101 l-308 0 0 -705z m702 405 c154
-22 268 -100 324 -222 27 -59 29 -71 29 -188 0 -118 -2 -128 -29 -184 -36 -73
-97 -136 -165 -170 -85 -44 -160 -56 -343 -56 l-168 0 0 415 0 415 143 0 c78
0 172 -5 209 -10z"/>
<path d="M947 3393 c-29 -105 -37 -175 -37 -309 0 -228 55 -420 144 -503 31
-30 32 -27 5 34 -70 158 -62 441 20 683 21 62 36 111 34 108 -3 -2 -34 6 -69
20 -36 13 -68 24 -73 24 -5 0 -15 -26 -24 -57z"/>
<path d="M5200 2416 c0 -4 9 -25 21 -47 32 -64 49 -163 49 -295 0 -142 -21
-276 -62 -394 -38 -109 -43 -126 -34 -118 4 3 37 -5 73 -18 53 -20 68 -22 74
-12 5 7 18 54 31 103 19 76 22 116 22 260 -1 193 -17 275 -78 400 -30 60 -96
144 -96 121z"/>
<path d="M9964 1822 c-98 -34 -154 -101 -154 -185 0 -125 72 -176 278 -197
166 -17 212 -28 244 -60 66 -66 11 -166 -106 -190 -99 -20 -226 10 -330 80
l-60 39 -34 -51 c-19 -28 -30 -53 -25 -57 127 -83 182 -106 303 -122 86 -12
188 -1 254 26 49 21 116 82 133 122 20 48 17 137 -7 183 -41 81 -116 117 -273
131 -62 5 -134 14 -162 20 -88 18 -121 74 -71 124 72 72 272 52 392 -40 18
-14 35 -25 38 -25 3 0 19 21 37 47 l32 46 -24 20 c-112 91 -336 133 -465 89z"/>
<path d="M13475 1826 c-124 -39 -186 -119 -170 -222 16 -109 100 -151 346
-173 113 -10 155 -24 188 -67 58 -73 -18 -161 -154 -179 -88 -12 -208 26 -312
96 l-41 29 -33 -51 -33 -51 25 -19 c39 -31 130 -76 195 -95 90 -27 251 -24
328 6 209 81 223 322 24 410 -31 13 -92 25 -185 34 -76 8 -155 21 -176 29
-114 48 -32 157 118 157 72 0 172 -33 239 -79 53 -37 53 -37 93 36 17 32 17
33 -2 47 -38 29 -141 75 -200 91 -70 18 -194 19 -250 1z"/>
<path d="M14464 1822 c-98 -34 -154 -101 -154 -185 0 -125 72 -176 278 -197
166 -17 212 -28 244 -60 66 -66 11 -166 -106 -190 -99 -20 -226 10 -330 80
l-60 39 -33 -50 -34 -50 23 -19 c37 -31 158 -87 218 -101 82 -19 224 -17 293
5 66 22 143 84 163 133 21 48 18 137 -6 183 -41 81 -116 117 -273 131 -62 5
-134 14 -162 20 -88 18 -121 74 -71 124 72 72 272 52 392 -40 18 -14 34 -25
37 -25 2 0 19 21 37 47 l33 46 -24 20 c-112 91 -336 133 -465 89z"/>
<path d="M15927 1829 c-53 -12 -87 -32 -124 -71 -57 -60 -70 -144 -32 -208 48
-78 105 -99 332 -120 110 -10 136 -18 175 -53 16 -15 22 -32 22 -62 0 -93
-124 -152 -265 -126 -65 12 -172 59 -222 97 l-32 24 -30 -44 c-17 -25 -31 -49
-31 -55 0 -19 105 -80 182 -105 295 -98 572 39 517 257 -26 107 -114 162 -284
177 -166 15 -193 20 -228 44 -43 29 -47 67 -11 101 79 73 253 54 401 -45 l31
-21 33 47 32 47 -24 20 c-41 33 -136 77 -201 92 -69 16 -182 18 -241 4z"/>
<path d="M16983 1821 c-135 -46 -220 -151 -243 -299 -21 -134 19 -261 109
-345 61 -57 111 -82 191 -97 173 -31 342 49 415 197 23 47 29 75 33 147 6 114
-10 181 -59 255 -46 68 -119 123 -198 145 -73 21 -183 20 -248 -3z m218 -106
c105 -38 160 -115 167 -236 6 -97 -13 -153 -70 -215 -95 -103 -266 -104 -367
-3 -51 51 -75 111 -75 195 -1 59 4 79 29 129 63 121 190 174 316 130z"/>
<path d="M21203 1826 c-107 -35 -196 -116 -235 -215 -17 -44 -22 -77 -22 -156
-1 -91 2 -106 31 -167 56 -118 148 -187 281 -209 172 -28 331 49 404 199 31
63 33 72 33 177 0 100 -3 116 -28 171 -36 77 -104 145 -182 181 -49 22 -77 28
-150 30 -57 2 -106 -2 -132 -11z m228 -120 c86 -41 139 -124 147 -227 12 -169
-99 -294 -259 -293 -138 2 -243 101 -256 244 -12 133 63 251 187 291 39 13
141 5 181 -15z"/>
<path d="M23225 1831 c-56 -16 -83 -30 -120 -63 -88 -76 -87 -194 1 -266 44
-37 122 -56 287 -72 108 -10 149 -23 178 -56 26 -30 31 -60 16 -97 -29 -69
-144 -108 -258 -88 -68 12 -170 56 -223 96 l-34 26 -32 -46 c-17 -25 -29 -52
-26 -60 7 -18 95 -69 166 -96 179 -68 406 -35 492 71 62 78 59 196 -8 269 -53
59 -111 79 -280 96 -160 16 -202 31 -218 78 -8 23 -6 31 18 56 62 64 196 68
318 7 40 -19 83 -43 95 -51 21 -16 23 -15 53 26 17 23 29 47 27 53 -6 20 -98
73 -165 96 -72 24 -233 36 -287 21z"/>
<path d="M7780 1461 l0 -371 245 0 c268 0 325 7 383 50 98 70 110 239 24 329
l-37 38 22 39 c30 52 30 125 1 184 -18 35 -35 51 -73 70 -49 24 -56 25 -307
28 l-258 4 0 -371z m489 248 c37 -13 51 -35 51 -83 0 -25 -7 -40 -26 -55 -25
-20 -40 -21 -210 -21 l-184 0 0 85 0 85 169 0 c97 0 181 -5 200 -11z m36 -283
c80 -34 89 -160 13 -206 -30 -18 -51 -20 -225 -20 l-193 0 0 120 0 120 185 0
c138 0 194 -4 220 -14z"/>
<path d="M8840 1571 c0 -142 5 -282 10 -312 13 -69 50 -123 100 -149 95 -49
302 -47 398 2 36 18 53 36 74 77 l28 53 0 294 0 294 -54 0 -55 0 -3 -277 c-3
-316 -7 -331 -75 -354 -60 -20 -191 -17 -238 7 -60 29 -64 48 -64 357 l-1 267
-60 0 -60 0 0 -259z"/>
<path d="M10850 1460 l0 -370 60 0 60 0 0 370 0 370 -60 0 -60 0 0 -370z"/>
<path d="M11370 1460 l0 -370 60 0 60 0 2 249 3 250 215 -249 c197 -228 218
-249 248 -249 l32 -1 0 370 0 370 -55 0 -55 0 -2 -251 -3 -251 -218 251 c-206
238 -220 251 -252 251 l-35 0 0 -370z"/>
<path d="M12400 1460 l0 -370 305 0 305 0 0 55 0 55 -245 0 -245 0 0 115 0
115 140 0 140 0 0 55 0 55 -140 0 -140 0 0 90 0 90 230 0 230 0 0 55 0 55
-290 0 -290 0 0 -370z"/>
<path d="M17840 1460 l0 -370 290 0 290 0 0 55 0 55 -230 0 -230 0 0 315 0
315 -60 0 -60 0 0 -370z"/>
<path d="M18702 1538 c3 -289 3 -294 28 -343 44 -89 114 -118 280 -119 132 0
194 19 244 74 19 21 39 56 45 77 7 23 11 152 11 321 l0 282 -54 0 -55 0 -3
-277 c-4 -309 -6 -320 -67 -349 -53 -25 -193 -25 -246 1 -60 30 -64 49 -64
358 l-1 267 -61 0 -61 0 4 -292z"/>
<path d="M19530 1775 l0 -55 150 0 150 0 0 -315 0 -315 55 0 55 0 0 315 0 315
150 0 150 0 0 55 0 55 -355 0 -355 0 0 -55z"/>
<path d="M20470 1460 l0 -370 60 0 60 0 0 370 0 370 -60 0 -60 0 0 -370z"/>
<path d="M22050 1460 l0 -370 60 0 60 0 2 247 3 247 215 -247 c198 -227 218
-247 248 -247 l32 0 0 370 0 370 -55 0 -55 0 0 -256 0 -255 -222 255 c-207
239 -224 256 -255 256 l-33 0 0 -370z"/>
</g>
</svg>
